<!--?xml version="1.0" standalone="no"?-->
              <svg id="sw-js-blob-svg" viewBox="0 0 100 100" xmlns="http://www.w3.org/2000/svg" version="1.1">
                    <defs> 
                        <linearGradient id="sw-gradient" x1="0" x2="1" y1="1" y2="0">
                            <stop id="stop1" stop-color="rgba(255, 179, 179, 1)" offset="0%"></stop>
                            <stop id="stop2" stop-color="rgba(222, 10, 30, 1)" offset="100%"></stop>
                        </linearGradient>
                    </defs>
                <path fill="rgba(255, 179, 179, 1)" d="M29,-31.7C36.8,-28,41.8,-18.1,41,-9.2C40.2,-0.3,33.6,7.6,28.6,16.8C23.6,25.9,20.3,36.2,13.6,39.7C6.9,43.1,-3.2,39.7,-12.6,35.8C-22.1,31.9,-30.9,27.4,-35.9,20.1C-40.9,12.8,-42.1,2.6,-38.9,-5.3C-35.7,-13.2,-28.1,-18.8,-20.8,-22.6C-13.6,-26.5,-6.8,-28.6,1.9,-30.9C10.6,-33.1,21.2,-35.5,29,-31.7Z" width="100%" height="100%" transform="translate(50 50)" stroke-width="0" style="transition: all 0.3s ease 0s;"></path>
              </svg>