<svg id="Layer_1" data-name="Layer 1" xmlns="http://www.w3.org/2000/svg" viewBox="0 0 46.91 65.47">
  <title>Blood</title>
  <path d="M962.28,508.23a3,3,0,0,0-4.85,0c-6,8.37-21,30.39-21,40.77a23.46,23.46,0,0,0,46.91,0C983.32,538.62,968.28,516.6,962.28,508.23Zm-12.59,50.22a2,2,0,0,1-1.56.73,2.09,2.09,0,0,1-1.33-.48c-5.81-4.9-3.81-12.13-3.71-12.44a2,2,0,0,1,3.93,1.12c-.06.24-1.32,5,2.43,8.19A2,2,0,0,1,949.69,558.45Z" transform="translate(-936.4 -506.98)" fill="#de0a1e" fill-rule="evenodd"/>
</svg>
