<svg id="Layer_1" data-name="Layer 1" xmlns="http://www.w3.org/2000/svg" xmlns:xlink="http://www.w3.org/1999/xlink" viewBox="0 0 22.22 20">
  <defs>
    <linearGradient id="linear-gradient" x1="1786.07" y1="-1153.03" x2="1810.75" y2="-1159.3" gradientTransform="matrix(1, 0, 0, -1, -818.38, -506.38)" gradientUnits="userSpaceOnUse">
      <stop offset="0" stop-color="#de0a1e"/>
      <stop offset="1" stop-color="#f09099"/>
    </linearGradient>
    <linearGradient id="linear-gradient-2" x1="1786.97" y1="-1145.06" x2="1810.13" y2="-1151.69" gradientTransform="matrix(1, 0, 0, -1, -818.38, -506.38)" gradientUnits="userSpaceOnUse">
      <stop offset="0" stop-color="#de0a1e"/>
      <stop offset="0.97" stop-color="#de0a1e"/>
    </linearGradient>
  </defs>
  <title>Message</title>
  <g opacity="0.5">
    <path d="M990.93,651.4a5.54,5.54,0,0,1-5.48,5.62H974.32a5.56,5.56,0,0,1-5.55-5.55h-.06V644a.56.56,0,0,1,.56-.55.5.5,0,0,1,.34.12c2.65,2.09,7.37,5.91,7.43,5.95a4.47,4.47,0,0,0,5.62,0s4.69-3.74,7.36-5.84a.56.56,0,0,1,.78.09.5.5,0,0,1,.12.34C990.93,646.55,990.93,651.4,990.93,651.4Z" transform="translate(-968.71 -637.02)" opacity="0.4" fill="url(#linear-gradient)" style="isolation: isolate"/>
    <path d="M990.36,640a5.56,5.56,0,0,0-5-3H974.27a5.56,5.56,0,0,0-4.89,3,1,1,0,0,0,.26,1.2l8.24,6.6a3.16,3.16,0,0,0,2,.69h0a3.16,3.16,0,0,0,2-.69l8.24-6.6A1,1,0,0,0,990.36,640Z" transform="translate(-968.71 -637.02)" fill="url(#linear-gradient-2)"/>
  </g>
</svg>
