<svg id="Layer_1" data-name="Layer 1" xmlns="http://www.w3.org/2000/svg" xmlns:xlink="http://www.w3.org/1999/xlink" viewBox="0 0 203.55 143.84">
  <defs>
    <linearGradient id="linear-gradient" x1="957.6" y1="1397.13" x2="957.6" y2="1513.75" gradientTransform="translate(-0.41 -934)" gradientUnits="userSpaceOnUse">
      <stop offset="0.13" stop-color="#ffe7e7"/>
      <stop offset="0.31" stop-color="#fee3e3"/>
      <stop offset="0.48" stop-color="#fbd8d8"/>
      <stop offset="0.63" stop-color="#f6c6c6"/>
      <stop offset="0.78" stop-color="#efacac"/>
      <stop offset="0.88" stop-color="#ea9898"/>
    </linearGradient>
    <linearGradient id="linear-gradient-2" x1="998.45" y1="1435.97" x2="1019.84" y2="1443.06" gradientTransform="translate(-0.41 -934)" gradientUnits="userSpaceOnUse">
      <stop offset="0" stop-color="#ffc7c8"/>
      <stop offset="0.48" stop-color="#ffe6e8"/>
      <stop offset="0.48" stop-color="#ffb3b3"/>
      <stop offset="1" stop-color="#ffb3b3"/>
    </linearGradient>
    <linearGradient id="linear-gradient-3" x1="977.2" y1="1447.47" x2="993.17" y2="1440.86" xlink:href="#linear-gradient-2"/>
    <linearGradient id="linear-gradient-4" x1="1035.36" y1="1445.01" x2="1028.32" y2="1477.91" gradientTransform="translate(-0.41 -934)" gradientUnits="userSpaceOnUse">
      <stop offset="0" stop-color="#ffe6e8"/>
      <stop offset="1" stop-color="#ffb3b3"/>
    </linearGradient>
    <linearGradient id="linear-gradient-5" x1="872.06" y1="1516.67" x2="886.05" y2="1500.71" xlink:href="#linear-gradient-2"/>
    <linearGradient id="linear-gradient-6" x1="886.72" y1="1460.2" x2="906.35" y2="1452.13" xlink:href="#linear-gradient-2"/>
    <linearGradient id="linear-gradient-7" x1="859.57" y1="1461.61" x2="903.33" y2="1498.22" xlink:href="#linear-gradient-4"/>
    <linearGradient id="linear-gradient-8" x1="992.22" y1="1476.19" x2="956.77" y2="1524.48" gradientTransform="translate(-0.41 -934)" gradientUnits="userSpaceOnUse">
      <stop offset="0" stop-color="#624cd5"/>
      <stop offset="1" stop-color="#2d2796"/>
    </linearGradient>
    <linearGradient id="linear-gradient-9" x1="995.05" y1="1440.01" x2="1006.69" y2="1454.89" gradientTransform="translate(-0.41 -934)" gradientUnits="userSpaceOnUse">
      <stop offset="0" stop-color="#483889"/>
      <stop offset="0.41" stop-color="#473786"/>
      <stop offset="0.71" stop-color="#42327d"/>
      <stop offset="0.96" stop-color="#3b2b6d"/>
      <stop offset="0.99" stop-color="#3a2a6b"/>
    </linearGradient>
    <linearGradient id="linear-gradient-10" x1="931.44" y1="1536.76" x2="877.8" y2="1523.43" gradientTransform="translate(-0.41 -934)" gradientUnits="userSpaceOnUse">
      <stop offset="0" stop-color="#fff"/>
      <stop offset="1" stop-color="#d8e7ec"/>
    </linearGradient>
    <linearGradient id="linear-gradient-11" x1="923.14" y1="1474.13" x2="887.73" y2="1536.55" xlink:href="#linear-gradient-10"/>
    <linearGradient id="linear-gradient-12" x1="921.52" y1="1476.41" x2="904.16" y2="1468.55" xlink:href="#linear-gradient-10"/>
    <linearGradient id="linear-gradient-13" x1="936.6" y1="1432.18" x2="924.97" y2="1445.53" gradientTransform="translate(-0.41 -934)" gradientUnits="userSpaceOnUse">
      <stop offset="0" stop-color="#3a2a6b"/>
      <stop offset="0.99" stop-color="#1d103e"/>
    </linearGradient>
    <linearGradient id="linear-gradient-14" x1="896.49" y1="1472.66" x2="911.58" y2="1446.33" xlink:href="#linear-gradient-13"/>
  </defs>
  <title>Object</title>
  <path d="M941.3,469.15c-8.67,1.72-17.06,7.11-20.08,15.4-2.31,6.36-1.48,14.14-6.07,19.11-2.86,3.11-7.18,4.31-11.16,5.76-14.26,5.2-26.87,15.78-32.81,29.75s-4.47,31.29,5.15,43c8.54,10.42,22.41,15.54,35.88,15.55,13,0,25.79-4.23,38.7-3,14.91,1.36,28.45,9.82,43.34,11.39,21.72,2.3,44.06-12.29,50.67-33.11,1.73-5.45,2.47-11.36,1.06-16.89-2.41-9.49-10.65-16.41-19.35-20.77s-18.33-6.89-27-11.38c-2.42-1.25-4.85-2.74-6.34-5-3.21-4.9-1.07-11.33-.11-17.11,1-6.17.47-12.75-2.5-18.26-3.75-6.94-11.47-11.3-19-12.58C961.63,469.28,951.34,467.15,941.3,469.15Z" transform="translate(-858.08 -468.35)" fill="url(#linear-gradient)"/>
  <path d="M1020.75,506a45.14,45.14,0,0,1-3.12,11.82l-.33.72c-.18.37-.36.73-.56,1.09h0A49.83,49.83,0,0,1,1008.9,530a48.31,48.31,0,0,1-11.67,9.74.32.32,0,0,1-.27,0,1.63,1.63,0,0,1-.73-.78c-1.6-2.62-3.6-11.12-3.6-12.51A58.14,58.14,0,0,1,994,511.06,69.25,69.25,0,0,1,997.25,500h0l.54-1.36a69.91,69.91,0,0,1,8.84-15.4q2.1-2.75,4.47-5.28l.1-.1.82-.85a65.13,65.13,0,0,1,6.86-6.1l.14-.11q.22.81.42,1.59a80.59,80.59,0,0,1,2.32,15.9v1.12A89.61,89.61,0,0,1,1020.75,506Z" transform="translate(-858.08 -468.35)" fill="url(#linear-gradient-2)"/>
  <path d="M997.2,500h0q3.09,9.69,5.31,19.58a.55.55,0,0,0,.17.27c-1.13,3.39-2.28,6.78-3.42,10.17l-.36.22a.51.51,0,0,0-.15.71.54.54,0,0,0,.15.15L996.24,539a1.65,1.65,0,0,0,.73.79l3.09-9.14q8.55-5.16,16.64-11h0c.2-.36.38-.72.56-1.09l.33-.72q-8.28,6.06-17.06,11.41c2.48-7.34,5-14.69,7.34-22.07,1.2-3.73,2.33-7.48,3.45-11.23l.13-.13a.43.43,0,0,0,.14-.23,91.54,91.54,0,0,0,10.17-6.18v-1.12a92.93,92.93,0,0,1-10,6.13c.57-1.89,1.13-3.77,1.71-5.66,1.69-5.53,4.25-10.84,5.92-16.37l-.42-1.59c-1.6,5.81-4.48,11.43-6.25,17.2-.32,1-.62,2-.94,3.06a139.09,139.09,0,0,0,.19-14l-.82.84-.1.11a113.66,113.66,0,0,1-.55,16.71.48.48,0,0,0,.1.33h0a.49.49,0,0,0-.2.67v0c-1.11,3.71-2.22,7.42-3.41,11.1q-1.86,5.76-3.78,11.5-2.29-10-5.44-19.7Z" transform="translate(-858.08 -468.35)" fill="#ffe6e8"/>
  <path d="M992,504.42a35,35,0,0,1,4.09,8.44c0,.2.11.39.16.58s.16.61.23.92h0a38.2,38.2,0,0,1,.65,9.95,37.23,37.23,0,0,1-1.87,11.47.2.2,0,0,1-.14.14,1.23,1.23,0,0,1-.82-.08c-2.25-.76-7.65-4.69-8.4-5.45a44.08,44.08,0,0,1-6.94-9.6,53.69,53.69,0,0,1-3.64-8.07h0c-.12-.35-.25-.71-.36-1.06a53,53,0,0,1-2.59-13.32,52,52,0,0,1-.06-5.3v-1a48.62,48.62,0,0,1,.93-7,.28.28,0,0,0,0-.13l1,.71a61.14,61.14,0,0,1,9.4,8c.2.2.4.41.59.63A68.15,68.15,0,0,1,992,504.42Z" transform="translate(-858.08 -468.35)" fill="url(#linear-gradient-3)"/>
  <path d="M975.31,512.72h0q6.65,4.08,12.9,8.71a.32.32,0,0,0,.23.06q1.56,3.81,3.11,7.62a.88.88,0,0,1-.1.3.4.4,0,0,0,.27.5.29.29,0,0,0,.16,0c.8,2,1.61,4,2.41,5.92a1.23,1.23,0,0,0,.82.08l-2.79-6.85q2.37-7.26,4.15-14.71h0c-.07-.31-.14-.61-.23-.92s-.1-.38-.16-.58q-1.77,7.67-4.18,15.17c-2.24-5.5-4.49-11-6.81-16.48-1.17-2.77-2.39-5.51-3.63-8.25a.33.33,0,0,0,0-.14.37.37,0,0,0,0-.21,71.4,71.4,0,0,0,2.81-8.68l-.64-.63a70.55,70.55,0,0,1-2.7,8.54c-.61-1.37-1.23-2.75-1.84-4.13-1.79-4.06-3-8.42-4.77-12.47l-1-.71c2,4.18,3.12,8.87,5,13.11.33.75.66,1.5,1,2.25q-3.26-4.29-6.94-8.25v1a88.81,88.81,0,0,1,8.06,10,.35.35,0,0,0,.23.15h0a.39.39,0,0,0,.23.5c1.22,2.71,2.43,5.41,3.59,8.15s2.39,5.7,3.57,8.56q-6.33-4.64-13-8.7Z" transform="translate(-858.08 -468.35)" fill="#ffe6e8"/>
  <path d="M1061.63,502.4a31.29,31.29,0,0,0-3,2.87,47.05,47.05,0,0,0-6.4,9.43l-.6,1.08c-.2.39-.4.79-.61,1.18-1.45,2.86-2.81,5.78-4.31,8.61l-.52,1a50.16,50.16,0,0,1-4,6.28c-.32.43-.66.86-1,1.28h0a17.36,17.36,0,0,1-1.25,1.42h0c-3.37,3.6-7.6,6.42-12.43,7.18a24.25,24.25,0,0,1-7.79-.19,19.72,19.72,0,0,1-7-2.27,15.91,15.91,0,0,1-3.09-2.4c-.23-.23-.45-.46-.65-.7-6.93-7.86.78-19.38,9.46-25.37.69-.48,1.38-.92,2.08-1.31a22.78,22.78,0,0,1,4.67-2.1,38.74,38.74,0,0,1,8-1.39h0l2.13-.13h0c2.78-.13,5.58-.12,8.36-.2h1.44c5.05-.22,10.2-.89,14.63-3.15h0A16.94,16.94,0,0,0,1061.63,502.4Z" transform="translate(-858.08 -468.35)" fill="url(#linear-gradient-4)"/>
  <path d="M1009,537.17c.85-1.07,1.74-2.12,2.66-3.13a38.77,38.77,0,0,1,5.32-19.87c.45-.77.95-1.57,1.49-2.37l2.07-1.31a45.28,45.28,0,0,0-3.16,4.85,37.9,37.9,0,0,0-4.74,17.68,69.82,69.82,0,0,1,5.71-5.3.67.67,0,0,1,0-.2A33.17,33.17,0,0,1,1033.23,507h0c.7-.06,1.42-.1,2.13-.13a32.28,32.28,0,0,0-15.87,19.89,88.15,88.15,0,0,1,10.82-7.22c2.84-1.61,5.7-3.17,8.57-4.72v-.07a25.87,25.87,0,0,1,4.93-8.09h1.34a24.83,24.83,0,0,0-5,7.52l7.29-3.92c4-2.2,8.4-4.22,12.34-6.75l1.85-1.12-3,2.88c-3,1.76-6.15,3.29-9.16,4.92l-8.89,4.8c1.19.85,3.19.61,4.51.57a35.48,35.48,0,0,0,5.25-.5q1-.15,1.89-.36l-.6,1.07q-1.8.36-3.63.54c-2.31.24-6.47,1-8.37-.83-2.25,1.22-4.5,2.44-6.74,3.68-1.72.94-3.39,1.93-5,3a49.4,49.4,0,0,0,18.84,3.45l-.51,1a50,50,0,0,1-19.06-3.67.39.39,0,0,1-.2-.16,78.39,78.39,0,0,0-11,8.37c2.6.39,4.9,1.56,7.36,2.53a26.86,26.86,0,0,0,7.94,1.85,22.92,22.92,0,0,0,10-1.36h0l-.15.18-1.1,1.24h0a23.06,23.06,0,0,1-6.71,1,27.48,27.48,0,0,1-8-1.18c-3.45-1-6.55-3.08-10.2-3.37a60.6,60.6,0,0,0-5.44,6Z" transform="translate(-858.08 -468.35)" fill="#ffe6e8"/>
  <path d="M882.71,566.34a34,34,0,0,1,7.18,5.62c.14.14.27.28.4.43l.59.7h0a37.47,37.47,0,0,1,4.83,8.39A36.27,36.27,0,0,1,899,592.29a.22.22,0,0,1-.06.19,1.08,1.08,0,0,1-.75.27c-2.28.31-8.68-.81-9.66-1.15a42.72,42.72,0,0,1-10.16-5.4,50.33,50.33,0,0,1-6.64-5.48h0L871,580a51.11,51.11,0,0,1-8-10.55,48.79,48.79,0,0,1-2.32-4.63v-.1l-.34-.81a47.63,47.63,0,0,1-2.21-6.52.28.28,0,0,0,0-.13,7.07,7.07,0,0,1,1.21.18,60.11,60.11,0,0,1,11.58,3l.79.3A67.28,67.28,0,0,1,882.71,566.34Z" transform="translate(-858.08 -468.35)" fill="url(#linear-gradient-5)"/>
  <path d="M871.72,580.69h0q7.53.7,15,2.07a.3.3,0,0,0,.23,0l6,5.31v.31a.39.39,0,0,0,.46.32.38.38,0,0,0,.13-.06l4.63,4.12a1.08,1.08,0,0,0,.75-.27l-5.36-4.78q-1-7.35-2.69-14.61h0l-.59-.7c-.13-.15-.26-.29-.4-.43q1.77,7.44,2.86,15c-4.31-3.84-8.63-7.68-13-11.46-2.21-1.92-4.45-3.78-6.7-5.64v-.13a.38.38,0,0,0-.12-.17,72.91,72.91,0,0,0-1.29-8.8l-.79-.3a67.8,67.8,0,0,1,1.31,8.61l-3.38-2.82c-3.3-2.78-6.2-6.08-9.51-8.83l-1.18-.09c3.55,2.83,6.55,6.31,9.93,9.21l1.83,1.53c-3.11-1.59-6.33-2.94-9.58-4.22l.34.81v.1A87.15,87.15,0,0,1,871.91,570a.23.23,0,0,0,.25,0h0a.35.35,0,0,0,.37.34h0c2.23,1.85,4.44,3.69,6.62,5.58s4.53,4,6.78,5.94q-7.5-1.33-15.09-2Z" transform="translate(-858.08 -468.35)" fill="#ffe6e8"/>
  <path d="M903.48,516.43a34.23,34.23,0,0,1,3.94,8.23c.05.19.11.38.16.57s.15.59.21.88h0a36.93,36.93,0,0,1,.59,9.67,36.35,36.35,0,0,1-1.87,11.14.2.2,0,0,1-.13.14,1.23,1.23,0,0,1-.8-.09c-2.18-.74-7.41-4.59-8.14-5.33a42.71,42.71,0,0,1-6.7-9.3,49.69,49.69,0,0,1-3.5-7.85h0c-.11-.34-.23-.68-.34-1a51.78,51.78,0,0,1-2.46-13,49.34,49.34,0,0,1,0-5.16v-.1l.06-.88a45.54,45.54,0,0,1,.93-6.77.33.33,0,0,0,0-.14c.34.23.68.46,1,.7a59.73,59.73,0,0,1,9,7.88c.2.2.39.41.58.61A68.18,68.18,0,0,1,903.48,516.43Z" transform="translate(-858.08 -468.35)" fill="url(#linear-gradient-6)"/>
  <path d="M887.23,524.43h0q6.42,4,12.49,8.51a.33.33,0,0,0,.23.07l3,7.42a.91.91,0,0,1-.1.29.39.39,0,0,0,.25.48.33.33,0,0,0,.17,0l2.36,5.77a1.23,1.23,0,0,0,.8.09q-1.35-3.33-2.68-6.67,2.29-7,4-14.28h0c-.06-.29-.13-.59-.21-.88s-.11-.38-.16-.57q-1.78,7.44-4.13,14.72-3.21-8-6.54-16c-1.13-2.69-2.31-5.36-3.49-8v-.13a.34.34,0,0,0,0-.2,69.19,69.19,0,0,0,2.76-8.43c-.18-.2-.37-.41-.57-.61a68.37,68.37,0,0,1-2.66,8.29l-1.77-4c-1.72-4-2.84-8.2-4.58-12.14l-1-.56c1.9,4.07,3,8.5,4.82,12.63.31.73.63,1.46,1,2.19a103.92,103.92,0,0,0-6.7-8l-.06.88v.1a87.6,87.6,0,0,1,7.79,9.73.24.24,0,0,0,.21.14h0a.36.36,0,0,0,.18.48h0c1.17,2.64,2.34,5.27,3.45,7.94s2.3,5.55,3.43,8.33q-6.21-4.65-12.71-8.59Z" transform="translate(-858.08 -468.35)" fill="#ffe6e8"/>
  <path d="M862.4,503.93a31.11,31.11,0,0,0,2.6,3.9,51.85,51.85,0,0,0,9.21,8.92q.54.45,1.08.84l1.19.91c2.89,2.16,5.86,4.24,8.7,6.45.33.25.64.5,1,.76a58.56,58.56,0,0,1,6.15,5.63c.42.44.83.9,1.22,1.37h0c.46.54.9,1.09,1.34,1.66h0c3.34,4.43,5.64,9.67,5.55,15.17a27.41,27.41,0,0,1-1.72,8.59,22.6,22.6,0,0,1-3.87,7.32,17.94,17.94,0,0,1-3.22,3c-.3.21-.6.4-.9.59-10.1,6.15-21.33-4.63-26.29-15.42-.4-.85-.75-1.71-1.06-2.55a25.6,25.6,0,0,1-1.41-5.59,42.41,42.41,0,0,1,0-9.15h0c.07-.8.16-1.6.27-2.39h0c.4-3.11,1-6.22,1.41-9.31v-.11h0c.07-.49.14-1,.2-1.49.8-5.69,1-11.5-.61-16.85h0A23.32,23.32,0,0,0,862.4,503.93Z" transform="translate(-858.08 -468.35)" fill="url(#linear-gradient-7)"/>
  <path d="M890.72,569q-1.5-1.74-3-3.56a43.56,43.56,0,0,1-21-9.76c-.76-.65-1.55-1.35-2.33-2.1l-1-2.55a49,49,0,0,0,4.79,4.44,42.39,42.39,0,0,0,18.66,8.72,74.75,74.75,0,0,1-4.78-7.36.38.38,0,0,1-.21,0A37.33,37.33,0,0,1,862,536.34h0c.07-.8.16-1.6.27-2.39a36.32,36.32,0,0,0,19,21.45,94.49,94.49,0,0,1-5.9-13.39c-1.24-3.46-2.42-6.94-3.57-10.42h-.08a29.11,29.11,0,0,1-8-7h-.07l.2-1.49a27.89,27.89,0,0,0,7.37,7c-1-3-2-5.9-2.94-8.85-1.64-4.91-3-10.13-5.08-15h0l1.79,1.68c1.4,3.57,2.48,7.41,3.71,11s2.39,7.18,3.59,10.78c1.17-1.16,1.3-3.42,1.51-4.89a40.38,40.38,0,0,0,.46-5.92v-2.17l1.08.84a37.9,37.9,0,0,1-.1,4.13c-.19,2.6-.11,7.37-2.55,9.11.91,2.74,1.83,5.46,2.77,8.19.72,2.08,1.49,4.13,2.29,6.14A55.43,55.43,0,0,0,885.21,525l1,.76a56.69,56.69,0,0,1-7.76,20.41.39.39,0,0,1-.22.18,85.84,85.84,0,0,0,7.14,13.8c.94-2.81,2.69-5.12,4.24-7.66A30.19,30.19,0,0,0,893.2,544a25.92,25.92,0,0,0,.42-11.29h0l.16.2,1.11,1.44h0a26.8,26.8,0,0,1-.26,7.64,31.19,31.19,0,0,1-2.87,8.63c-1.83,3.62-4.67,6.66-5.71,10.65a66.08,66.08,0,0,0,5.58,7.19Z" transform="translate(-858.08 -468.35)" fill="#ffe6e8"/>
  <path d="M1043.68,545a92.42,92.42,0,0,1-4.14,14.81,16.09,16.09,0,0,1-1.79,3.74c-1,1.51-2.5,2.67-3.53,4.17a30.16,30.16,0,0,0-2.11,4.31c-3.89,8.42-12.27,14-16.82,22-1.62,2.89-2.75,6.08-4.83,8.65a5.76,5.76,0,0,1-2.29,1.86c-1.75.67-3.66-.1-5.35-1l-.43-.22-8.58-4.53-12.11-6.38a11,11,0,0,1-2.52-1.64c-.63-.61-1.12-1.36-1.72-2a14.21,14.21,0,0,0-4-2.67l-21-10.61c-3.91-2-9.83-4.56-11.76-8.83-.91-2-.06-3.88,1-5.64,1.6-2.61,3.33-5.14,5-7.71l5.48-8.47c1.85-2.86,3.71-5.72,5.55-8.58,3.3-5.09,6.61-10.22,8.93-15.83,1.25-3,2.31-6.31,4.8-8.41,1.78,3.5,3.84,7.28,7.48,8.74,1.4.56,2.92.73,4.29,1.35a17,17,0,0,1,4,3c6.79,6,15.25,9.85,23.82,12.82,8.05,2.8,16.54,4.94,25,4.75a35.25,35.25,0,0,0,4.23-.31c1.25-.15,2.88-.15,3.34,1A2.67,2.67,0,0,1,1043.68,545Z" transform="translate(-858.08 -468.35)" fill="#d8e7ec"/>
  <path d="M958.83,554.88a8.17,8.17,0,0,1-2.25.39c-.61,0,1.17,1.62,1.4,2.19a4.39,4.39,0,0,0,.4.88,1,1,0,0,0,.81.46,1.33,1.33,0,0,0,.72-.38l1.91-1.59c1-.82,1.73-2.41.32-3.35C961.06,552.77,959.81,554.42,958.83,554.88Z" transform="translate(-858.08 -468.35)" fill="#e54c4c"/>
  <path d="M952.93,555.65c-2.5.39-4.9,1.24-7.4,1.63-3.27.52-6.63.25-9.87.88-.79.16-1.7.5-1.87,1.28a2.25,2.25,0,0,0,.78,1.82l2.68,3a4.53,4.53,0,0,1,1,1.56c.1.34.16.77.49.9a.75.75,0,0,0,.42,0c5.74-.39,11.14-2.77,16.39-5.12l3.39-1.51a2.52,2.52,0,0,0,1.51-1.26c.37-1.11-1-2.86-2-3.31C956.93,555,954.46,555.41,952.93,555.65Z" transform="translate(-858.08 -468.35)" fill="#fe6361"/>
  <path d="M945.45,602.77a37.49,37.49,0,0,1-6.93.75,50.65,50.65,0,0,1-11.6-.54c-3.23-.62-6.47-1.8-9.72-1.32-.66-9.3,2.21-18.44,5-27.32a1.69,1.69,0,0,1,.49-.87,1.52,1.52,0,0,1,1-.17,41.62,41.62,0,0,1,7.09,1.52,41.54,41.54,0,0,0,13.14,1.11,8,8,0,0,1,3,.13,6.72,6.72,0,0,1,2.48,1.72,44.23,44.23,0,0,1,6.07,7.45c1.49,2.32,3.75,5.57,4.16,8.34s-3.46,4.23-5.43,5.43A29.44,29.44,0,0,1,945.45,602.77Z" transform="translate(-858.08 -468.35)" fill="#1e1240"/>
  <path d="M1015.63,552.52c.06,2.93-1.73,5.53-3.45,7.91l-3.51,4.85a4.18,4.18,0,0,1-2.42,2c-.85-2-3.58-2.59-5.62-1.83s-3.55,2.48-5,4.1c-3.92,4.36-8.11,8.46-12.29,12.57l-.22.2c-2.5,2.46-5,4.92-7.72,7.17a59.46,59.46,0,0,1-11.71,7.72c-1.58.79-3.36,1.51-5.07,1.06a7.57,7.57,0,0,1-3-1.93,68.14,68.14,0,0,1-8-8.29h0c-4.7-5.89-8.14-12.65-8.61-20.08a134.06,134.06,0,0,0,21.14-11.22c.58-.38,1.22-.84,1.32-1.52a.08.08,0,0,0,0-.07,4.74,4.74,0,0,0-.29-1.48c-.41-1.85,1-3.64,2.6-4.64s3.5-1.53,5-2.65c3-2.23,4-6.27,6.43-9.16a13.71,13.71,0,0,1,4.13-3.28,23,23,0,0,1,2.13-1c2.2-.86,4.52-1.17,6.73-1.92a8.84,8.84,0,0,1,5.81-.14c5.17,1.3,9.92,3.8,14.6,6.27a10.38,10.38,0,0,1,2.6,1.74,10.08,10.08,0,0,1,2.16,4.44l1.62,5.81A13,13,0,0,1,1015.63,552.52Z" transform="translate(-858.08 -468.35)" fill="url(#linear-gradient-8)"/>
  <path d="M1000,547.34a2.71,2.71,0,0,0-2.65.25,12.68,12.68,0,0,0-2.07,1.87,4.64,4.64,0,0,1-2.37,1.42,15.43,15.43,0,0,1-2.71-.18,6.37,6.37,0,0,0-3.92,1.64c-1.12.91-2.08,2-3.2,2.91s-2.08,1.4-3,2.22a5.29,5.29,0,0,0-2,3.11,2.14,2.14,0,0,0,1.62,2.56,1.9,1.9,0,0,0,.75,0,5.89,5.89,0,0,0,2.21-.62,29.41,29.41,0,0,0,8-5.21,16,16,0,0,0,2.78-3.14c.76-1.14,2-1.75,3-2.64A17.59,17.59,0,0,0,1000,547.34Z" transform="translate(-858.08 -468.35)" fill="#2d2796"/>
  <path d="M979.44,534a28.67,28.67,0,0,1-3.8,6.82l-2.28,3.37a34.93,34.93,0,0,1-2.08,2.89,34.4,34.4,0,0,1-6.41,6,14.21,14.21,0,0,1-3.32,2.15,4.74,4.74,0,0,0-.29-1.48c-.41-1.85,1-3.64,2.6-4.64s3.5-1.53,5-2.65c3-2.23,4-6.27,6.43-9.16A13.58,13.58,0,0,1,979.44,534Z" transform="translate(-858.08 -468.35)" fill="#2d2796"/>
  <path d="M985.27,577.78v31.79a2.78,2.78,0,0,1-5.55,0V577.78a2.78,2.78,0,0,1,5.55,0Z" transform="translate(-858.08 -468.35)" fill="#2e215e"/>
  <path d="M985.27,583.74v10.43l-.72-.23a30.74,30.74,0,0,1-4.83-2.17V583A39.82,39.82,0,0,1,985.27,583.74Z" transform="translate(-858.08 -468.35)" fill="#03010c"/>
  <path d="M1017.74,573.08a1.12,1.12,0,0,1-.49.54c-4.17,3-8.94,5-13.14,7.9-3.46,2.41-6.72,5.52-10.86,6.28a20.83,20.83,0,0,1-7.7-.51L971,584.52c-5.88-1.13-11.79-2.26-17.34-4.49a1,1,0,0,1-.54-.38c-.28-.47.28-1,.76-1.23,7-3.75,14.42-6.51,20.81-11.27a9.4,9.4,0,0,1,2.69-1.6,8.51,8.51,0,0,1,2.3-.26,69.25,69.25,0,0,1,19,2.45l.41.11c4.14,1.16,8.23,2.68,12.43,3.53a30.89,30.89,0,0,0,4.68.6C1016.94,572,1018,572.39,1017.74,573.08Z" transform="translate(-858.08 -468.35)" fill="#afccd2"/>
  <path d="M1018.14,572.73h-.41a.48.48,0,0,1,0,.37,1.12,1.12,0,0,1-.49.54c-4.17,3-8.94,5-13.14,7.9-3.46,2.41-6.71,5.52-10.87,6.28a21.2,21.2,0,0,1-7.69-.51L971,584.54c-5.88-1.12-11.79-2.26-17.34-4.49a1.27,1.27,0,0,1-.41-.23c-.7,1.1.64,2.69,1.54,3.27a10.35,10.35,0,0,0,4.34,1.25,162.62,162.62,0,0,1,19,3.83c5.59,1.48,11.5,3.26,17,1.56a21.19,21.19,0,0,0,5.29-2.61c4.56-2.91,8.62-6.62,13.5-9a11.77,11.77,0,0,0,3.3-1.93A3.16,3.16,0,0,0,1018.14,572.73Z" transform="translate(-858.08 -468.35)" fill="#659296"/>
  <path d="M1011.53,571.34a4.22,4.22,0,0,1-.69.77,32.65,32.65,0,0,1-4.61,3.32l-5.93,3.75a41.2,41.2,0,0,1-7.67,4.16,13.9,13.9,0,0,1-8.55.61c-2.07-.6-3.89-1.82-5.86-2.68-1.32-.57-5.32-.42-5.77-1.88-.51-1.68,2.76-3.39,3.89-4,2.16-1.26,4.36-2.46,6.58-3.6a33.63,33.63,0,0,1,4.84-2.12,37,37,0,0,1,6.57-1.33c1.58-.2,3.17-.4,4.77-.53C1003.24,569,1007.33,570.53,1011.53,571.34Z" transform="translate(-858.08 -468.35)" fill="#9abcc1"/>
  <path d="M964.63,574.34a1.7,1.7,0,0,0-.9,1.08c-.07.8.9,1.22,1.68,1.4l19,4.35a23.64,23.64,0,0,0,3,.56,14.82,14.82,0,0,0,6.72-1,38.22,38.22,0,0,0,6.78-3.73,44.44,44.44,0,0,0,5.51-3.93,23.31,23.31,0,0,1,3.53-2.89c.87-.5,2-1,2-2a43.1,43.1,0,0,0-8.66-2.79l-4-1-4.71-1.15a66.38,66.38,0,0,0-9.18-1.76,10.45,10.45,0,0,0-5.14.52c-3.08,1.35-4.42,4.83-6.92,6.91S967.52,572.46,964.63,574.34Z" transform="translate(-858.08 -468.35)" fill="#fff"/>
  <path d="M1006.63,567.18a1.2,1.2,0,0,1-.42.85,2.26,2.26,0,0,1-1.88.2,20.59,20.59,0,0,0-4.15-.27,3.46,3.46,0,0,0-1.64.37,9.4,9.4,0,0,0-1.35,1.4,5.3,5.3,0,0,1-2.87,1.26,11.59,11.59,0,0,0-3.65,1c-1.45.89-2.19,2.53-3.12,4s-2.39,2.79-4.07,2.56c-1.4-.2-2.7-1.15-4.08-1.67l1.82-.69a16.32,16.32,0,0,0,4.45-2.19c1.22-1,2.15-2.2,3.29-3.23a12,12,0,0,1,3.63-2.25v-.08a1,1,0,0,0,.42,0,7.38,7.38,0,0,0,2.21-1.35,5.73,5.73,0,0,1,3.47-1h.75l1.78-.09c1.25-.06,2.51-.1,3.76-.13,0-.19,1.65.22,2,.43C1007.1,566.21,1006.79,566.73,1006.63,567.18Z" transform="translate(-858.08 -468.35)" fill="#f4f2f2"/>
  <path d="M1005,565.8c-1.26,0-2.52.07-3.78.13l-2.45.13h-.08a5.81,5.81,0,0,0-3.48,1,7.14,7.14,0,0,1-2.2,1.35c-.66.18-.76-.22-1.22-.73a11.23,11.23,0,0,1-1.12-1.74c-1.64-2.58-4.91-3.78-8-3.7-.38,0-.87,0-1-.4a.77.77,0,0,1,.13-.55c1.27-2.38,3.75-3.84,6.15-5.08,1.55-.81,3.11-1.59,4.7-2.31l.45-.21.56-.21a3.89,3.89,0,0,1,3.32.65c2.53,1.42,4.35,3.84,6,6.16C1004.22,561.93,1005.4,563.83,1005,565.8Z" transform="translate(-858.08 -468.35)" fill="#e54c4c"/>
  <path d="M972.63,570.34a6,6,0,0,1-1,1.82,4.82,4.82,0,0,1-1.45,1l-2,1c-1.85.94-3.86,2.06-4.53,4a1.49,1.49,0,0,1-1.5,1.42,4.42,4.42,0,0,0-3,2.72,6.44,6.44,0,0,0-.16,3.4l4.25,1.4a5.84,5.84,0,0,0,2.64.44c.53-.07,1-.29,1.55-.37.71-.11,1.46,0,2.15-.14,1.89-.47,2.45-2.84,3.73-4.3a16.36,16.36,0,0,0,1.78-1.85,1.76,1.76,0,0,0-.15-2.34l6.41-2.4a16.38,16.38,0,0,0,4.45-2.21c1.22-.94,2.15-2.19,3.29-3.22a12,12,0,0,1,3.63-2.25c.37-.15-2.62-3.75-2.93-4a11.85,11.85,0,0,0-4.67-2.48c-3.14-.87-6.59,1.39-8.83,3.46A15.58,15.58,0,0,0,972.63,570.34Z" transform="translate(-858.08 -468.35)" fill="#fe6361"/>
  <path d="M1008.92,531.56a60,60,0,0,0,.31,6,29.43,29.43,0,0,1-6.27,1.66c-1.11.18-2.24.31-3.36.41-.81.07-2-.1-2.13-1.09-.13-.7.53-1.38.85-1.94a31.43,31.43,0,0,1,3.31-5.36,12.64,12.64,0,0,1,4.69-3.24,7.26,7.26,0,0,1,1-.32,4.36,4.36,0,0,1,2-.08A13.93,13.93,0,0,0,1008.92,531.56Z" transform="translate(-858.08 -468.35)" fill="#db4646"/>
  <path d="M1006.25,530a17.85,17.85,0,0,0-3.26,8.79v.37c-1.11.18-2.24.31-3.36.41-.81.08-2-.1-2.13-1.09-.13-.7.53-1.38.85-1.94a31.24,31.24,0,0,1,3.28-5.31,12.64,12.64,0,0,1,4.69-3.24,7.26,7.26,0,0,1,1-.32C1007.72,528.27,1007,529,1006.25,530Z" transform="translate(-858.08 -468.35)" fill="#c13636"/>
  <path d="M1013,521.55a10.32,10.32,0,0,1-2.63,6,2.09,2.09,0,0,1-1.1.74c-.45.09-1-.11-1.38,0a1.91,1.91,0,0,0-.73.59,38.65,38.65,0,0,0-3.47,4.79,10,10,0,0,1-1.8,2.44,13.55,13.55,0,0,1-6.66,1.87,3.7,3.7,0,0,1-1.13-.21,6.42,6.42,0,0,1-2.55-2.16,10.77,10.77,0,0,1-1.62-2.27,10.59,10.59,0,0,1-.65-2.23,48.57,48.57,0,0,1-1.41-10.32,25.72,25.72,0,0,1,.77-5.85c.27-1.11,1.5-2.87.25-3.59a61.33,61.33,0,0,0,6.9-.71c.89-.13,1.77-.29,2.67-.45,3.18-.59,6.49-1.09,9.69-.33a2.82,2.82,0,0,1,1.27.57,3.16,3.16,0,0,1,.7,2.3,32.6,32.6,0,0,1-.08,4.53,6,6,0,0,0,.2,3.48,4,4,0,0,1,1.44-.6,1.26,1.26,0,0,1,1.31.68A1.64,1.64,0,0,1,1013,521.55Z" transform="translate(-858.08 -468.35)" fill="#fe6361"/>
  <path d="M1013,521.55a10.32,10.32,0,0,1-2.63,6,2.09,2.09,0,0,1-1.1.74c-.45.09-1-.11-1.38,0a1.91,1.91,0,0,0-.73.59,38.65,38.65,0,0,0-3.47,4.79,10,10,0,0,1-1.8,2.44,13.55,13.55,0,0,1-6.66,1.87,2,2,0,0,1,1.11-1.82,19.21,19.21,0,0,1,2.34-.85,5.24,5.24,0,0,0,3.12-5.21c-.13-1.37-.79-2.84-.12-4,.53-.93,1.71-1.33,2.28-2.24a4.41,4.41,0,0,0,.08-3.4,5.74,5.74,0,0,0-1.35-2.92c-1.33-1.26-3.45-1-5.22-.51-1.18.32-3.5,1.29-4.5.16s0-2.72.64-3.67a31.67,31.67,0,0,1,2.13-2.93c.88-.13,1.77-.29,2.67-.45,3.18-.59,6.49-1.09,9.69-.33a2.78,2.78,0,0,1,1.26.57,3.11,3.11,0,0,1,.7,2.3,32.6,32.6,0,0,1-.07,4.53,6,6,0,0,0,.2,3.48,4,4,0,0,1,1.44-.6,1.26,1.26,0,0,1,1.31.68A1.73,1.73,0,0,1,1013,521.55Z" transform="translate(-858.08 -468.35)" fill="#ea5757"/>
  <path d="M1005,503a15.08,15.08,0,0,0-5.62-.75,22.4,22.4,0,0,0-3.06.15,10.87,10.87,0,0,0-5.79,2.7,9.66,9.66,0,0,0-3,5.61,6.58,6.58,0,0,1-.41,1.92c-.23.48-.61.88-.82,1.37a2.72,2.72,0,0,0,1,3,5.34,5.34,0,0,0,3.27.91,14.93,14.93,0,0,0,6.57-1.78c2-1,4-2.29,5.93-3.45a3,3,0,0,1,1.77-.56,2.26,2.26,0,0,1,1.54,1.28c.85,1.58.75,3.48.74,5.27a3.46,3.46,0,0,0,.43,2,1.86,1.86,0,0,0,2.61.25,1.83,1.83,0,0,0,.3-.32,3.41,3.41,0,0,1,.36-.57,4.17,4.17,0,0,1,.47-.36,3.68,3.68,0,0,0,1.14-2.43,26.09,26.09,0,0,0,.23-7.54c-.23-2.09-1.11-3-3-3.93C1008,505,1006.63,503.67,1005,503Z" transform="translate(-858.08 -468.35)" fill="url(#linear-gradient-9)"/>
  <path d="M887.3,590.2c-2.34,4.34-4.15,9.25-3.45,14.13q22,0,44,1.85a29.64,29.64,0,0,0-.06-16.44,1.53,1.53,0,0,0-1.62-1.41h-.1l-21.84-1.47-10.91-.74c-.85-.06-4.22-.76-4.79-.17-.2.21-.15,1.7-.24,2A10,10,0,0,1,887.3,590.2Z" transform="translate(-858.08 -468.35)" fill="url(#linear-gradient-10)"/>
  <path d="M938.29,546a41.2,41.2,0,0,1,.58,11.3,10.46,10.46,0,0,0,0,3.16,7.3,7.3,0,0,0,3.62,4.34c1.66,1,3.5,1.71,5.08,2.82a12.19,12.19,0,0,0-3.79,5.28,37,37,0,0,0-1.68,6.36,38.07,38.07,0,0,1-12.36-5.51l1.53-16.1c.23-2.5.47-5,.7-7.49.26-2.66.52-5.33.76-8,.14-1.39.27-2.77.4-4.15.08-.85-.12-2.84.43-3.48,1.53-1.78,2.47,3.29,2.73,4.09A65.41,65.41,0,0,1,938.29,546Z" transform="translate(-858.08 -468.35)" fill="#becfd3"/>
  <path d="M936,547.25a31.53,31.53,0,0,1-.55,4.66c-1.65,9.83-3.31,19.7-6.34,29.2a2.2,2.2,0,0,1-2.5,1.9,125.09,125.09,0,0,1-23.85-.7,6.09,6.09,0,0,0-2.55,0,5.51,5.51,0,0,0-2.5,2.2,37,37,0,0,0-4.53,8.4c-4.51-1.38-7.59-5.43-10.35-9.26a4.61,4.61,0,0,1-.79-1.4,4.75,4.75,0,0,1-.05-1.88,162.75,162.75,0,0,1,7.3-33.43,10.23,10.23,0,0,1,1.3-2.73,12.8,12.8,0,0,1,2.81-2.43,30.26,30.26,0,0,0,2.84-2.35,30.64,30.64,0,0,0,3.56-3.91c.56-.74,1-1.69,1.58-2.37a6,6,0,0,1,2.75-1.32,71,71,0,0,1,8.24-2.09h.11c5.56-1.07,11.21-1.61,16.85-2.15a5.16,5.16,0,0,1,2.31.14c1.64.64,2.13,2.66,2.39,4.39l1.47,9.46A32.74,32.74,0,0,1,936,547.25Z" transform="translate(-858.08 -468.35)" fill="url(#linear-gradient-11)"/>
  <path d="M934.63,558.65h0a.42.42,0,0,0-.1-.6l0,0c1.36-1.43,2.72-3.09,2.74-4.74a.33.33,0,0,0-.34-.32.42.42,0,0,0-.15,0l-.24.15v-.27a.48.48,0,0,0-.51-.46.52.52,0,0,0-.31.12c-1.64,2.1-2.74,4.5-4.5,6.56s-3.5,4.84-5.92,5.93h0a13.67,13.67,0,0,0,1.92-.85,8,8,0,0,0,2.66-1.51h0a18.82,18.82,0,0,0,1.78-1.68,3.64,3.64,0,0,1,1.37-.34,13.72,13.72,0,0,1,2.69.82.59.59,0,0,0,.72-.44.6.6,0,0,0-.26-.65C935.44,559.9,934.73,559.55,934.63,558.65Z" transform="translate(-858.08 -468.35)" fill="#becfd3"/>
  <path d="M904.9,581.12c-.18-2-2.2-2.82-3.31-4.26-1.34-1.73-1.16-4.15-.92-6.33l.88-8a16.46,16.46,0,0,0-.17-6.52,25.86,25.86,0,0,0-.28-2.9,3.26,3.26,0,0,0-.13-.68,6.62,6.62,0,0,0-1.23-3.09,8,8,0,0,0-2.11-2.3,5.36,5.36,0,0,0-2.08-1h0c2.09,1.32,2.9,4.26,3.53,6.58a8,8,0,0,1,0,3.77,11.11,11.11,0,0,0-.44,1.08c-1.62,4.68-2,9.66-2.47,14.59a14.79,14.79,0,0,0,0,3.12c.39,2.94,3.31,7.61,6.46,8.23C904.07,583.74,905,582.74,904.9,581.12Z" transform="translate(-858.08 -468.35)" fill="#becfd3"/>
  <path d="M959.83,568.34a14.25,14.25,0,0,0,.78,3.31c.32,1,.8,2.12,1.81,2.33a2.85,2.85,0,0,0,1.09-.06l2.41-.43c1.9-.33,3.89-.71,5.35-2a19.56,19.56,0,0,0,2.81-3.83c1.75-2.43,4.35-4.09,6.88-5.68a5.62,5.62,0,0,1,2.67-1c.62,0,1.43.07,1.68-.5.06-.13.08-.3.19-.4s.25-.1.37-.16a.71.71,0,0,0,.29-.91,1.47,1.47,0,0,0-.76-.69,1.08,1.08,0,0,1-.51-.33c-.08-.12-.1-.26-.17-.38a1,1,0,0,0-.87-.35l-4.48-.31a4.85,4.85,0,0,0-1.82.1c-1.68.53-2.39,2.68-4,3.27-.53.19-1.12.19-1.64.4-1,.42-1.59,1.54-2.22,2.47a9.87,9.87,0,0,1-7.71,4.25C961.05,567.48,959.74,567,959.83,568.34Z" transform="translate(-858.08 -468.35)" fill="#4cb4d5"/>
  <path d="M983.51,561a.71.71,0,0,0-.88-.47c-3.15,1-6.39,1.8-9.62,2.5a.72.72,0,0,0-.52.86.69.69,0,0,0,.67.54h.15c3.27-.7,6.54-1.55,9.73-2.52a.7.7,0,0,0,.48-.88Z" transform="translate(-858.08 -468.35)" fill="#ae273e"/>
  <path d="M914.32,583.2a17.36,17.36,0,0,1-1.31,6,2,2,0,0,1-.62,1,2.07,2.07,0,0,1-1.06.3,73.36,73.36,0,0,1-8.64.49,28.81,28.81,0,0,1-3.71-.28,18.16,18.16,0,0,0-4.71-.41l3.18-5.3c.73-1.21,1.45-2.34,2.78-2.67a2.62,2.62,0,0,1,.56-.09C905.31,582,909.8,583.34,914.32,583.2Z" transform="translate(-858.08 -468.35)" fill="#fe6361"/>
  <path d="M918.05,541.18a3.45,3.45,0,0,1-2-.84,16,16,0,0,0-16.22-.72,5.36,5.36,0,0,1-1.91.8,1.5,1.5,0,0,1-1.66-1h0a30.64,30.64,0,0,0,3.56-3.91c.56-.74,1-1.69,1.58-2.37a6,6,0,0,1,2.75-1.32,71,71,0,0,1,8.24-2.09h.11a17.5,17.5,0,0,1,2.51,3.13,33.61,33.61,0,0,1,2.43,4.34A5.48,5.48,0,0,1,918.05,541.18Z" transform="translate(-858.08 -468.35)" fill="url(#linear-gradient-12)"/>
  <path d="M930.17,528.1a2.18,2.18,0,0,1-1.06,1.52c-1.38,1-3.13,1.94-3.47,3.62a6,6,0,0,0,0,1.27,67.8,67.8,0,0,1-.29,8.19c-.15,1.45-.33,2.9-.57,4.33,0,.13,0,.28-.17.33a.46.46,0,0,1-.43-.17,55.21,55.21,0,0,1-3.42-4.73c-3.41-4.54-8.73-7.18-13.13-10.78a2,2,0,0,1-.56-.62,1.76,1.76,0,0,1,.35-1.59c1.24-1.84,3.21-3,5-4.3a35.6,35.6,0,0,0,6.31-5.83c.7-.83,1.45-2.4,2.71-1.93a9.3,9.3,0,0,1,2.72,2.35,11.41,11.41,0,0,0,.84.86,23.29,23.29,0,0,1,2.72,2.72,22.14,22.14,0,0,1,2.13,3.68A2.31,2.31,0,0,1,930.17,528.1Z" transform="translate(-858.08 -468.35)" fill="#db4646"/>
  <path d="M930.17,528.1a2.18,2.18,0,0,1-1.06,1.52c-1.38,1-3.13,1.94-3.47,3.62a6,6,0,0,0,0,1.27,67.8,67.8,0,0,1-.29,8.19,3.91,3.91,0,0,1-1-1.58,10.79,10.79,0,0,1-.39-3c0-1.7-.11-3.39-.16-5.09a6.64,6.64,0,0,0-.35-2.29c-.56-1.4-2-2.46-2-4,0-1,.77-1.9,1.19-2.86a7.8,7.8,0,0,0,.29-3c0-.75.6-1.1,1.25-1.27a11.41,11.41,0,0,0,.84.86,22.88,22.88,0,0,1,2.7,2.87,22.14,22.14,0,0,1,2.13,3.68A2.31,2.31,0,0,1,930.17,528.1Z" transform="translate(-858.08 -468.35)" fill="#c13636"/>
  <path d="M944.46,523a1.74,1.74,0,0,1-1.8.71,9.61,9.61,0,0,0-2-.19,2.94,2.94,0,0,1-.41,2.48,2.79,2.79,0,0,0-.49.54,4.89,4.89,0,0,0-.14.64c-.24.75-1.34.86-1.7,1.56-.12.24-.14.51-.25.75a1.32,1.32,0,0,1-1,.77,3.84,3.84,0,0,1-1.72,0,38.39,38.39,0,0,1-6.55-2l-1.32-.53a16.59,16.59,0,0,1-3-1.3,2.76,2.76,0,0,1-1.1-1.24,4.35,4.35,0,0,1,0-2.15,1.31,1.31,0,0,0-.07-.87c-.26-.47-.72-.19-1.1-.11a1.43,1.43,0,0,1-1.26-.37c-1.15-1.08-.95-2.94-.74-4.33a4.13,4.13,0,0,1,.39-1.37c.64-1.11,2.09-1.09,3.14-.69.4.15.78.3,1.17.47l.85.38c.38-.72.79-1.43,1.25-2.13a33.57,33.57,0,0,1,3.34-4.36,11.91,11.91,0,0,1,2.4-2.14,14.35,14.35,0,0,1,5.18-1.61,11,11,0,0,1,3.53-.24,3.73,3.73,0,0,1,2.85,1.88,4.81,4.81,0,0,1,.37,1.74c.2,3-1.72,5.55-1.57,8.56a5.21,5.21,0,0,0,.85,2.6C944.09,521.2,944.89,522.13,944.46,523Z" transform="translate(-858.08 -468.35)" fill="#fe6361"/>
  <path d="M936.63,530.25a3.84,3.84,0,0,1-1.72,0,38.39,38.39,0,0,1-6.55-2l-1.32-.53a16.59,16.59,0,0,1-3-1.3,2.76,2.76,0,0,1-1.1-1.24,4.35,4.35,0,0,1,0-2.15,1.31,1.31,0,0,0-.07-.87c-.26-.47-.72-.19-1.1-.11a1.43,1.43,0,0,1-1.26-.37c-1.15-1.08-1-2.94-.74-4.33a4.13,4.13,0,0,1,.39-1.37c.64-1.11,2.09-1.09,3.14-.69.4.15.78.3,1.17.47l.85.38c.38-.72.79-1.43,1.25-2.13,1,.09,2.66-.11,3.06.77.56,1.24-.72,3.44-1.15,4.57-.57,1.5-.92,3.3,0,4.62a5.61,5.61,0,0,0,2.44,1.69l3.25,1.49c1.11.51,2.39,1.23,2.52,2.45A1.78,1.78,0,0,1,936.63,530.25Z" transform="translate(-858.08 -468.35)" fill="#ea5757"/>
  <path d="M936.42,516.21a11.51,11.51,0,0,0,4-2.47c1.88-2,2.36-4.84,3.52-7.3a4.39,4.39,0,0,0,.52-1.5,3.4,3.4,0,0,0-.77-2.11,23.37,23.37,0,0,0-5.23-4.84c-2.31-1.73-4.77-3.53-7.64-3.85-4-.43-7.58,2-10.81,4.3l-3.85,2.75c-1,.73-2.11,1.58-2.32,2.8s.66,2.59.65,3.93a7,7,0,0,1-.54,2.21,10.08,10.08,0,0,0-.43,5.7,5.4,5.4,0,0,0,3.82,4,2.18,2.18,0,0,0,2.53-.94c.38-.9-.14-2.2.65-2.78a4.64,4.64,0,0,1,3.89,0c1,.69,1.24,1.53,2.61,1.85C930.16,518.65,933.63,517.43,936.42,516.21Z" transform="translate(-858.08 -468.35)" fill="url(#linear-gradient-13)"/>
  <path d="M912.93,501.93a2.15,2.15,0,0,0-.95,1.33,6.7,6.7,0,0,0-.15,1.67A2.22,2.22,0,0,0,912,506a2.1,2.1,0,0,0,1.93.75,1.73,1.73,0,0,0,.71-.1c.68-.26.9-1.11,1-1.84s.45-2.48-.25-3A3.38,3.38,0,0,0,912.93,501.93Z" transform="translate(-858.08 -468.35)" fill="#fe6361"/>
  <path d="M908,500.87a7.39,7.39,0,0,0-2.27.88,14.63,14.63,0,0,0-6.78,8.47,34.17,34.17,0,0,0-1,6.42c-.49,4.79-1.54,9.85-4.94,13.26a8.55,8.55,0,0,0-1.35,1.59,4.45,4.45,0,0,0-.31,3,4.55,4.55,0,0,0,.91,2.14,3.81,3.81,0,0,0,3.9,1,7,7,0,0,0,3.38-2.44,7,7,0,0,1,1.27-1.34,1.69,1.69,0,0,1,1.74-.2c.53.31.74,1,1.11,1.46a3.43,3.43,0,0,0,2.48,1.23A8.84,8.84,0,0,0,909,536a8.07,8.07,0,0,0,2.67-1.12,6.37,6.37,0,0,0,2.42-5.22,21,21,0,0,0-1.06-5.86,16.1,16.1,0,0,1-.81-5.89c.27-2.56,1.7-5.09,1-7.59-.27-1-.9-2-.68-3.08.33-1.53,1.27-3.48.29-5C912,500.81,909.36,500.62,908,500.87Z" transform="translate(-858.08 -468.35)" fill="url(#linear-gradient-14)"/>
  <path d="M940.75,596.5a9,9,0,0,0-3.1.65h-.11a22.16,22.16,0,0,1-4,1.65c-2.52.54-5.13-.64-7.69-.28a13,13,0,0,0-2.59.74c.1-2,2.53-3.11,2.76-5a3.37,3.37,0,0,0-1.39-2.87,12.28,12.28,0,0,0-3.11-1.46,7.23,7.23,0,0,1-3-1.72c-.41-.45-.72-1-1.09-1.47a6.88,6.88,0,0,0-1.95-1.73c0-.94,1.13-1.38,2-1.67,1.74-.55,3.28-1.63,5-2.13s3.85-.58,5.73-1.23c.68-.22,1.54-.45,2,.08a1.29,1.29,0,0,1,.28.72v.58a12.14,12.14,0,0,0,2.34,6.45c.39.57.82,1.13,1.25,1.69s1,1.33,1.55,2A19.51,19.51,0,0,0,940.75,596.5Z" transform="translate(-858.08 -468.35)" fill="#ae273e"/>
  <path d="M940.75,596.5a8.94,8.94,0,0,0-3.1.64h-.11a8.21,8.21,0,0,1-1-.56c-1.32-.86-2.61-2.07-2.79-3.63a2.1,2.1,0,0,0-.28-1.19,2.7,2.7,0,0,0-1-.54,2.27,2.27,0,0,1-1.19-1.33,11.33,11.33,0,0,0-.42-1.79,3.68,3.68,0,0,0-2.23-1.41c-.88-.31-1.84-.82-2-1.73a2.17,2.17,0,0,1,.82-1.85c.66-.62,1.49-1,2.19-1.56a8.11,8.11,0,0,0,.91-.85v.58a12.14,12.14,0,0,0,2.34,6.45c.39.58.82,1.13,1.25,1.69s1,1.34,1.55,2A19.71,19.71,0,0,0,940.75,596.5Z" transform="translate(-858.08 -468.35)" fill="#9b1e39"/>
  <path d="M935,585.59a5.16,5.16,0,0,1-.44-.67c-.08-.2-.13-.41-.22-.61a2.41,2.41,0,0,0-.49-.66,3.55,3.55,0,0,0-3.31-.86c-.5.13-1,.5-1,1a1,1,0,0,0,.73.83.29.29,0,0,1,.24.16.33.33,0,0,1,0,.24,1.88,1.88,0,0,0,.76,1.57c.52.38,1.25.51,1.58,1a3.76,3.76,0,0,1,.27.62,1.72,1.72,0,0,0,1.64,1C937.15,589.1,935.73,586.67,935,585.59Z" transform="translate(-858.08 -468.35)" fill="#2f88c0"/>
  <path d="M912.54,582.61a5.81,5.81,0,0,1-1,3.55,6.38,6.38,0,0,0-1,1.66,4.12,4.12,0,0,0,.28,2.28,2.85,2.85,0,0,0,1.06,1.68,2.68,2.68,0,0,0,1.18.27,12,12,0,0,0,3.88-.11,3.12,3.12,0,0,1,1.6-.18c1,.29,1.29,1.64,2.24,2A8.86,8.86,0,0,0,922,594c1.11.27,1.87,1.65,3,1.5a1.59,1.59,0,0,0,1.21-1.78,3.28,3.28,0,0,0-1.19-2,7.48,7.48,0,0,0-1.79-1.2c-1.63-.77-3.64-1-4.78-2.4-.68-.82-1-2-1.91-2.53-.39-.23-.94-.42-1-.87A.72.72,0,0,1,916,584a3.8,3.8,0,0,1,.8-.22c.29-.06,1.37-.34,1.44-.72s-1.14-.26-1.45-.26A35.48,35.48,0,0,1,912.54,582.61Z" transform="translate(-858.08 -468.35)" fill="#4cb4d5"/>
  <path d="M937.7,591.81a6.5,6.5,0,0,0-.68-2.76,2.84,2.84,0,0,0-2.3-1.52,1.08,1.08,0,0,0-.73.25,1.15,1.15,0,0,0-.18,1,3.2,3.2,0,0,0,.74,1.82c.45.47,1.14.76,1.37,1.38.07.19.09.39.15.58.14.42.81,1.23,1.34,1.12S937.74,592.34,937.7,591.81Z" transform="translate(-858.08 -468.35)" fill="#4cb4d5"/>
  <path d="M962.17,573.7c-2.15.56-4.3,1.12-6.47,1.55-3,.59-6.12.93-9.19,1.25l-.74.08-3,.31a4.69,4.69,0,0,1,.33-2.09,20.35,20.35,0,0,1,1.31-3.46,17.72,17.72,0,0,1,1.92-2.79c.21-.27.41-.66.73-.79a4.52,4.52,0,0,1,1.64,0l2.63.09c1.58,0,3.16.07,4.74.08a27.78,27.78,0,0,1,4.08,0C960.91,569.84,961.59,571.76,962.17,573.7Z" transform="translate(-858.08 -468.35)" fill="#fe6361"/>
  <path d="M902.69,591a28.81,28.81,0,0,1-3.71-.28,18.16,18.16,0,0,0-4.71-.41l3.18-5.3c.73-1.21,1.45-2.34,2.78-2.67a1.49,1.49,0,0,1,.78.49,2.33,2.33,0,0,1,.39,1.51,9.56,9.56,0,0,1-.36,2.5,3.5,3.5,0,0,0-.21,1.81c.2.67.83,1.09,1.31,1.59A4.44,4.44,0,0,1,902.69,591Z" transform="translate(-858.08 -468.35)" fill="#f45b5b"/>
  <path d="M1043.68,545a92.42,92.42,0,0,1-4.14,14.81,16.09,16.09,0,0,1-1.79,3.74c-1,1.51-2.5,2.67-3.53,4.17a30.16,30.16,0,0,0-2.11,4.31c-3.89,8.42-12.27,14-16.82,22-1.62,2.89-2.75,6.08-4.83,8.65a5.76,5.76,0,0,1-2.29,1.86c-1.75.67-3.66-.1-5.35-1,.53-1.87,1.76-3.75,1.67-5.72a7.88,7.88,0,0,1-.08-2c.22-1,1.16-1.72,1.89-2.47,1.93-2,2.64-4.88,4.23-7.16,2.08-3,5.47-4.7,8.2-7.11a40.91,40.91,0,0,0,6.19-7.5,6.9,6.9,0,0,0,1.57-3.42c.08-1.28-.54-2.57-.29-3.83.31-1.56,1.81-2.53,2.91-3.69,1.87-2,2.66-4.7,3.16-7.36s.79-5.42,1.91-7.89a8.13,8.13,0,0,1,1.93-2.68,29.87,29.87,0,0,0,4.23-.3c1.25-.15,2.88-.15,3.34,1A2.69,2.69,0,0,1,1043.68,545Z" transform="translate(-858.08 -468.35)" fill="#b6cbd1"/>
  <path d="M972.63,563.48c-5.66,1.19-9.18,5.42-10.46,10.87a6.11,6.11,0,0,1-3.69,4.67,9.54,9.54,0,0,0-3.2,2.11c-1.8,2-2,4.75-2.33,7.31-.38,2.82-1.92,3.78-4.42,4.56a11.51,11.51,0,0,0-4.06,2c-2.21,1.85-2.67,4.51-3.34,7.16-.5,2.18-1.8,6.18-4.79,5.75-2.67-.4-3.18-2.85-3.57-5.06-.43-2.52-1-5-3.67-5.92-.58-.19-.83.72-.26.91,3.91,1.28,2.34,6.73,4.47,9.46a4.09,4.09,0,0,0,5.77.62l0,0c2.49-1.79,2.77-5,3.52-7.78a7.91,7.91,0,0,1,3.92-5.33c1.49-.78,3.19-1,4.68-1.71,2.41-1.23,2.57-3.55,2.86-6,.24-2,.78-4.33,2.37-5.78,1.35-1.23,3.23-1.51,4.62-2.66,2.31-1.93,2-5.38,3.29-7.9a12.51,12.51,0,0,1,8.57-6.38C973.52,564.27,973.27,563.34,972.63,563.48Z" transform="translate(-858.08 -468.35)" fill="#ff605d"/>
  <path d="M1005,565.8c-1.26,0-2.52.07-3.78.13v-.42a9.06,9.06,0,0,0-1.6-5.52,20.26,20.26,0,0,0-4.06-4.21,20.44,20.44,0,0,1-2.83-1.88l.45-.21.56-.21a3.89,3.89,0,0,1,3.32.65c2.53,1.42,4.35,3.84,6,6.16C1004.22,561.93,1005.4,563.83,1005,565.8Z" transform="translate(-858.08 -468.35)" fill="#c13636"/>
  <path d="M951.33,567.91a5.84,5.84,0,0,1-1.06,2.66c-1.26,2-2.5,4-3.76,5.93l-.74.08-3,.31a4.84,4.84,0,0,1,.34-2.09,21.85,21.85,0,0,1,1.29-3.46,18.48,18.48,0,0,1,1.93-2.79c.21-.27.41-.66.73-.79a4.52,4.52,0,0,1,1.64,0Z" transform="translate(-858.08 -468.35)" fill="#db4646"/>
</svg>
